<?xml version="1.0" encoding="utf-8"?>
<!-- Generator: Adobe Illustrator 16.0.0, SVG Export Plug-In . SVG Version: 6.00 Build 0)  -->
<!DOCTYPE svg PUBLIC "-//W3C//DTD SVG 1.1 Tiny//EN" "http://www.w3.org/Graphics/SVG/1.1/DTD/svg11-tiny.dtd">
<svg version="1.1" baseProfile="tiny" id="Layer_1" xmlns="http://www.w3.org/2000/svg" xmlns:xlink="http://www.w3.org/1999/xlink"
	 x="0px" y="0px" width="25px" height="25px" viewBox="0 0 25 25" xml:space="preserve">
<g>
	<path fill="#B8C0BA" d="M21.477,14.085l-1.283-0.827l-0.889,0.557l-6.236,3.902c-0.175,0.11-0.372,0.168-0.568,0.168
		c-0.199,0-0.396-0.059-0.568-0.168l-6.283-3.935L4.76,13.225l-1.258,0.872c-0.264,0.181-0.424,0.522-0.417,0.891
		c0.006,0.368,0.177,0.702,0.446,0.872l8.591,5.379c0.115,0.073,0.247,0.112,0.378,0.112s0.26-0.039,0.376-0.111l8.59-5.377
		c0.275-0.171,0.447-0.512,0.447-0.887C21.916,14.602,21.748,14.26,21.477,14.085z"/>
	<path fill="#B8C0BA" d="M3.723,11.429l8.592,5.381c0.059,0.036,0.122,0.054,0.186,0.054c0.064,0,0.126-0.018,0.185-0.054
		l5.674-3.552l-0.836-0.562c-0.27-0.181-0.369-0.595-0.219-0.924c0.148-0.33,0.488-0.449,0.76-0.268l0.855,0.574
		c0.199,0.134,0.303,0.391,0.287,0.649l2.07-1.296c0.133-0.085,0.217-0.252,0.219-0.436c0-0.183-0.082-0.351-0.217-0.438
		l-8.901-5.736c-0.028-0.02-0.062-0.034-0.093-0.043c-0.011-0.003-0.021-0.003-0.033-0.005c-0.02-0.004-0.041-0.01-0.062-0.01
		c-0.001,0-0.002,0-0.002,0c-0.023,0.001-0.045,0.007-0.067,0.012c-0.011,0.002-0.023,0.002-0.034,0.005
		C12.053,4.794,12.02,4.81,11.99,4.83l-1.905,1.32l0.756,0.508c0.27,0.181,0.368,0.596,0.219,0.924
		c-0.102,0.226-0.293,0.353-0.49,0.353c-0.091,0-0.183-0.027-0.269-0.085L9.444,7.275C9.288,7.17,9.191,6.986,9.164,6.786
		l-5.454,3.777c-0.13,0.09-0.209,0.258-0.205,0.438C3.507,11.182,3.592,11.346,3.723,11.429z M14.414,9.834
		c0.15-0.329,0.488-0.449,0.76-0.268l1.445,0.97c0.27,0.182,0.369,0.595,0.221,0.924c-0.104,0.225-0.295,0.352-0.49,0.352
		c-0.092,0-0.186-0.026-0.27-0.084l-1.445-0.97C14.365,10.577,14.266,10.163,14.414,9.834z M11.526,7.896
		c0.148-0.329,0.488-0.449,0.76-0.268l1.443,0.969C14,8.778,14.098,9.192,13.949,9.521c-0.102,0.225-0.293,0.352-0.49,0.352
		c-0.092,0-0.184-0.027-0.27-0.085l-1.445-0.97C11.475,8.638,11.376,8.225,11.526,7.896z"/>
</g>
<g>
</g>
<g>
</g>
<g>
</g>
<g>
</g>
<g>
</g>
<g>
</g>
</svg>
