<?xml version="1.0" encoding="utf-8"?>
<!-- Generator: Adobe Illustrator 16.0.0, SVG Export Plug-In . SVG Version: 6.00 Build 0)  -->
<!DOCTYPE svg PUBLIC "-//W3C//DTD SVG 1.1 Tiny//EN" "http://www.w3.org/Graphics/SVG/1.1/DTD/svg11-tiny.dtd">
<svg version="1.1" baseProfile="tiny" id="Layer_1" xmlns="http://www.w3.org/2000/svg" xmlns:xlink="http://www.w3.org/1999/xlink"
	 x="0px" y="0px" width="25px" height="25px" viewBox="0 0 25 25" xml:space="preserve">
<path fill="#B8C0BA" d="M21.044,6.266L20.491,7.32l-1.373,0.781L17.385,8.13l-1.066-1.098l0.129-1.315l1.022-0.885l1.398-0.418
	l-1.263-0.988c0,0-4.165,0.27-4.206,5.041l-4.393,3.788c0,0-5.093-0.601-6.227,4.692l0.914,0.761l1.368-1.792l1.917-0.496
	l1.416,1.082l0.296,1.645L7.662,19.75l-2.046,0.811l0.589,0.983c0,0,5.388,0.813,5.852-5.954l3.994-4.093
	c0,0,5.954,0.38,6.169-4.298L21.044,6.266z"/>
<g>
</g>
<g>
</g>
<g>
</g>
<g>
</g>
<g>
</g>
<g>
</g>
</svg>
