<?xml version="1.0" encoding="utf-8"?>
<!-- Generator: Adobe Illustrator 16.0.0, SVG Export Plug-In . SVG Version: 6.00 Build 0)  -->
<!DOCTYPE svg PUBLIC "-//W3C//DTD SVG 1.1 Tiny//EN" "http://www.w3.org/Graphics/SVG/1.1/DTD/svg11-tiny.dtd">
<svg version="1.1" baseProfile="tiny" id="Layer_1" xmlns="http://www.w3.org/2000/svg" xmlns:xlink="http://www.w3.org/1999/xlink"
	 x="0px" y="0px" width="25px" height="25px" viewBox="0 0 25 25" xml:space="preserve">
<path fill="#B8C0BA" d="M21.762,12.467c-0.266,0.582-0.661,1.111-1.06,1.609c-0.512,0.641-1.612,2.295-2.601,2.213
	c-1.125-0.094-0.377-2.314-1.519-2.797c-1.496-0.633-3.098,0.9-3.229,2.326c-0.044,0.477,0.17,1.023,0.557,1.307
	c0.466,0.34,2.65,0.244,2.332,1.236c-0.251,0.783-3.276,4.029-3.994,3.123c-0.578-0.729-1.094-1.48-1.725-2.172
	c-0.373-0.412-0.965-1.189-1.574-1.283c-0.562-0.088-0.584,1.551-0.744,1.943c-0.391,0.953-1.373,1.051-2.281,0.875
	c-1.416-0.271-2.248-1.926-1.59-3.211c0.49-0.953,1.215-0.969,2.197-1.082C7.656,16.428,6.521,15.318,6.164,15
	c-0.678-0.609-1.375-1.207-2.111-1.744c-0.592-0.436-1.137-0.516-0.584-1.25c0.508-0.676,1.021-1.346,1.586-1.977
	C5.439,9.602,6.136,8.633,6.8,8.738c0.906,0.145,0.561,1.656,0.977,2.285c0.695,1.047,2.141,0.742,2.969,0.006
	c0.604-0.538,1.066-1.372,0.863-2.199c-0.334-1.351-1.145-1.145-2.217-1.339C8.324,7.299,8.763,6.277,9.277,5.785
	c0.736-0.703,1.494-1.4,2.312-2.008c0.49-0.363,0.881-0.689,1.324-0.085c0.405,0.55,0.815,1.089,1.256,1.614
	c0.471,0.561,0.972,1.27,1.604,1.664c0.662,0.275,0.615-0.316,0.669-0.83c0.217-2.043,2.509-2.591,3.84-1.145
	c1.058,1.148,0.766,3.357-1.068,3.501c-0.459,0.036-1.581-0.05-1.16,0.742c0.125,0.236,0.312,0.413,0.5,0.597
	C19.38,10.643,20.594,12.196,21.762,12.467C21.762,12.467,21.004,12.291,21.762,12.467z"/>
<g>
</g>
<g>
</g>
<g>
</g>
<g>
</g>
<g>
</g>
<g>
</g>
</svg>
