<?xml version="1.0" encoding="utf-8"?>
<!-- Generator: Adobe Illustrator 16.0.0, SVG Export Plug-In . SVG Version: 6.00 Build 0)  -->
<!DOCTYPE svg PUBLIC "-//W3C//DTD SVG 1.1 Tiny//EN" "http://www.w3.org/Graphics/SVG/1.1/DTD/svg11-tiny.dtd">
<svg version="1.1" baseProfile="tiny" id="Layer_1" xmlns="http://www.w3.org/2000/svg" xmlns:xlink="http://www.w3.org/1999/xlink"
	 x="0px" y="0px" width="25px" height="25px" viewBox="0 0 25 25" xml:space="preserve">
<g>
	<g>
		<path fill="#B8C0BA" d="M14.93,5.561c-0.549-0.093-1.109-0.14-1.662-0.14c-2.083,0-4.083,0.642-5.788,1.854
			c-1.975,1.408-3.357,3.471-3.916,5.818l5.179,0.287c0.318-1.246,1.067-2.339,2.12-3.09c0.931-0.663,2.027-1.012,3.168-1.012
			c0.301,0,0.605,0.023,0.902,0.074c2.48,0.415,4.158,2.771,3.742,5.248c-0.172,1.014-0.727,1.901-1.559,2.496
			c-0.824,0.586-1.859,0.824-2.865,0.658c-0.861-0.145-1.616-0.616-2.12-1.323c-0.51-0.712-0.709-1.578-0.564-2.439
			c0.023-0.145,0.106-0.275,0.229-0.364c0.093-0.067,0.211-0.102,0.327-0.102l0.076,0.004l0.821,0.139
			c0.305,0.052,0.512,0.34,0.463,0.642c-0.061,0.355,0.021,0.706,0.225,0.995c0.207,0.287,0.512,0.479,0.861,0.537
			c0.492,0.083,1.018-0.037,1.42-0.327c0.414-0.294,0.688-0.733,0.771-1.233c0.24-1.424-0.725-2.779-2.15-3.02
			c-0.193-0.032-0.391-0.051-0.588-0.051c-0.73,0-1.436,0.229-2.036,0.656c-0.766,0.545-1.27,1.356-1.426,2.284
			c-0.205,1.222,0.074,2.449,0.797,3.46c0.722,1.01,1.79,1.677,3.012,1.882c0.33,0.058,0.668,0.084,1.004,0.084l0,0
			c2.961,0,5.461-2.121,5.953-5.044c0.342-2.053-0.133-4.117-1.342-5.811C18.777,7.027,16.982,5.902,14.93,5.561z"/>
	</g>
</g>
<g>
</g>
<g>
</g>
<g>
</g>
<g>
</g>
<g>
</g>
<g>
</g>
</svg>
