<?xml version="1.0" encoding="utf-8"?>
<!-- Generator: Adobe Illustrator 16.0.0, SVG Export Plug-In . SVG Version: 6.00 Build 0)  -->
<!DOCTYPE svg PUBLIC "-//W3C//DTD SVG 1.1 Tiny//EN" "http://www.w3.org/Graphics/SVG/1.1/DTD/svg11-tiny.dtd">
<svg version="1.1" baseProfile="tiny" id="Layer_1" xmlns="http://www.w3.org/2000/svg" xmlns:xlink="http://www.w3.org/1999/xlink"
	 x="0px" y="0px" width="25px" height="25px" viewBox="0 0 25 25" xml:space="preserve">
<path fill="#B8C0BA" d="M19.126,11.666c0.122-0.416,0.191-0.853,0.191-1.308c0-2.605-2.161-4.719-4.829-4.719
	c-1.758,0-3.291,0.922-4.136,2.294c-0.351-0.12-0.728-0.189-1.12-0.189c-1.895,0-3.43,1.535-3.43,3.431
	c0,0.169,0.016,0.334,0.039,0.496c-1.711,0.193-3.043,1.644-3.043,3.407c0,1.895,1.536,3.431,3.432,3.431h13.087v-0.048
	c1.636-0.262,2.884-1.675,2.884-3.383C22.201,13.304,20.854,11.844,19.126,11.666z M9.571,15.849
	c0.001-0.008,0.003-0.016,0.007-0.024c0.003,0.004,0.006,0.007,0.012,0.01L9.571,15.849z"/>
<g>
</g>
<g>
</g>
<g>
</g>
<g>
</g>
<g>
</g>
<g>
</g>
</svg>
