<?xml version="1.0" encoding="utf-8"?>
<!-- Generator: Adobe Illustrator 16.0.0, SVG Export Plug-In . SVG Version: 6.00 Build 0)  -->
<!DOCTYPE svg PUBLIC "-//W3C//DTD SVG 1.1 Tiny//EN" "http://www.w3.org/Graphics/SVG/1.1/DTD/svg11-tiny.dtd">
<svg version="1.1" baseProfile="tiny" id="Layer_1" xmlns="http://www.w3.org/2000/svg" xmlns:xlink="http://www.w3.org/1999/xlink"
	 x="0px" y="0px" width="25px" height="25px" viewBox="0 0 25 25" xml:space="preserve">
<path fill="#B8C0BA" d="M21.099,10.333c-0.072-0.295-0.299-0.526-0.594-0.605c-0.023-0.006-0.048-0.011-0.073-0.014L15.19,9.119
	l-1.815-4.606c-0.007-0.013-0.011-0.026-0.019-0.04c-0.137-0.274-0.411-0.452-0.71-0.462c-0.315-0.015-0.601,0.142-0.758,0.414
	c-0.01,0.016-0.017,0.03-0.024,0.048L9.655,9.397l-5.084,0.805c-0.005,0.001-0.01,0.002-0.014,0.003
	c-0.305,0.059-0.549,0.276-0.643,0.57c-0.092,0.295-0.016,0.615,0.203,0.836c0.012,0.013,0.025,0.024,0.038,0.036l3.662,2.994
	l-0.711,5.387c-0.05,0.314,0.089,0.635,0.353,0.818c0.262,0.178,0.619,0.191,0.891,0.033c0.016-0.01,0.032-0.021,0.047-0.033
	l4.103-3.055l3.94,3.051c0.02,0.014,0.039,0.029,0.061,0.041c0.125,0.07,0.268,0.107,0.413,0.107c0.177,0,0.347-0.055,0.491-0.158
	c0.264-0.191,0.391-0.52,0.326-0.838l-0.945-5.215l4.071-3.633C21.079,10.939,21.173,10.628,21.099,10.333z"/>
<g>
</g>
<g>
</g>
<g>
</g>
<g>
</g>
<g>
</g>
<g>
</g>
</svg>
