<?xml version="1.0" encoding="utf-8"?>
<!-- Generator: Adobe Illustrator 16.0.0, SVG Export Plug-In . SVG Version: 6.00 Build 0)  -->
<!DOCTYPE svg PUBLIC "-//W3C//DTD SVG 1.1 Tiny//EN" "http://www.w3.org/Graphics/SVG/1.1/DTD/svg11-tiny.dtd">
<svg version="1.1" baseProfile="tiny" id="Layer_1" xmlns="http://www.w3.org/2000/svg" xmlns:xlink="http://www.w3.org/1999/xlink"
	 x="0px" y="0px" width="25px" height="25px" viewBox="0 0 25 25" xml:space="preserve">
<g>
	<path fill="#B8C0BA" d="M8.306,10.07c0.145,0.369,0.217,0.841,0.217,1.402c0,0.663-0.187,1.442-0.553,2.318L7.817,14.2l0.154,1.114
		c0.018,0.128,0.049,0.157,0.05,0.157l0.007-0.001v0.238l0.003-0.238c0.028-0.001,0.089-0.066,0.142-0.242
		c0.106-0.379,0.346-0.825,0.734-1.358l0.539-0.739c0.137-0.181,0.279-0.471,0.424-0.863c0.178-0.479,0.216-0.72,0.216-0.837
		c0-0.549-0.176-1.256-0.521-2.104c-0.57-1.411-0.637-1.865-0.637-2.083c0-0.113,0.018-0.23,0.051-0.35l0.266-0.97
		c0.094-0.347,0.143-0.683,0.143-0.998c0-0.167-0.014-0.334-0.039-0.511L9.257,3.916C9.253,3.899,9.249,3.885,9.245,3.872
		C9.234,3.892,9.222,3.92,9.206,3.96C9.054,4.366,8.925,4.643,8.827,4.78L8.405,5.458c-0.482,0.77-0.729,1.491-0.729,2.149
		c0,0.543,0.107,1.1,0.32,1.654L8.306,10.07z"/>
	<path fill="#B8C0BA" d="M11.606,9.592c0.29,0.655,0.436,1.3,0.436,1.92c0,0.386-0.077,0.759-0.232,1.109l-0.432,0.981
		c-0.207,0.485-0.312,0.879-0.312,1.168v0.134l0.076,0.529c0.006,0.036,0.035,0.22,0.1,0.22h0.008
		c0.056-0.003,0.098-0.12,0.117-0.222c0.072-0.354,0.391-0.87,0.978-1.574c0.871-1.048,1.313-1.957,1.313-2.699
		c0-0.499-0.221-1.198-0.658-2.079c-0.442-0.882-0.657-1.492-0.657-1.866c0-0.302,0.101-0.8,0.306-1.522
		c0.162-0.528,0.242-0.981,0.242-1.352c0-0.232-0.021-0.423-0.068-0.564l-0.161-0.54c-0.036-0.118-0.071-0.196-0.099-0.244
		c-0.028,0.085-0.063,0.243-0.088,0.528C12.452,3.78,12.327,4.1,12.091,4.493L11.597,5.35c-0.488,0.841-0.734,1.521-0.734,2.024
		c0,0.377,0.102,0.797,0.301,1.249L11.606,9.592z"/>
	<path fill="#B8C0BA" d="M14.302,14.567c0,0.034,0.001,0.069,0.008,0.107c0.002,0.011,0.004,0.02,0.005,0.028
		c0.04,0.565,0.04,0.579,0.04,0.594c0,0.221,0.047,0.274,0.049,0.276c0.006-0.004,0.057-0.044,0.111-0.217
		c0.127-0.369,0.544-1.004,1.276-1.947c0.779-1.005,1.174-1.861,1.174-2.544c0-0.474-0.214-1.146-0.636-1.998
		c-0.419-0.843-0.615-1.397-0.615-1.746c0-0.101,0.011-0.202,0.032-0.302l0.134-0.732c0.023-0.131,0.037-0.266,0.037-0.402
		c0-0.123-0.012-0.242-0.037-0.354l-0.213-0.946c-0.055-0.234-0.108-0.369-0.146-0.446c-0.009,0.044-0.018,0.102-0.023,0.177
		c-0.032,0.268-0.166,0.67-0.41,1.239l-0.361,0.84c-0.146,0.362-0.222,0.771-0.222,1.21c0,0.436,0.212,1.075,0.632,1.905
		c0.307,0.62,0.455,1.142,0.455,1.596c0,0.736-0.287,1.606-0.877,2.658C14.354,14.202,14.302,14.467,14.302,14.567z"/>
	<path fill="#B8C0BA" d="M22.317,16.124c0.391-2-2.14-3.951-4.156-4.425c0,0-0.737-0.078-0.459,0.396c0,0,3.035,1.128,3.035,2.924
		s-4.802,3.006-8.207,3.006h-0.029H12.47c-3.404,0-8.206-1.21-8.206-3.006s3.035-2.924,3.035-2.924
		c0.278-0.475-0.459-0.396-0.459-0.396c-2.017,0.474-4.547,2.425-4.157,4.425C2.655,16.1,2.64,16.086,2.64,16.086
		s0.623,5.925,9.861,5.925c9.237,0,9.858-5.925,9.858-5.925S22.347,16.1,22.317,16.124z"/>
</g>
<g>
</g>
<g>
</g>
<g>
</g>
<g>
</g>
<g>
</g>
<g>
</g>
</svg>
