<?xml version="1.0" encoding="utf-8"?>
<!-- Generator: Adobe Illustrator 16.0.0, SVG Export Plug-In . SVG Version: 6.00 Build 0)  -->
<!DOCTYPE svg PUBLIC "-//W3C//DTD SVG 1.1 Tiny//EN" "http://www.w3.org/Graphics/SVG/1.1/DTD/svg11-tiny.dtd">
<svg version="1.1" baseProfile="tiny" id="Layer_1" xmlns="http://www.w3.org/2000/svg" xmlns:xlink="http://www.w3.org/1999/xlink"
	 x="0px" y="0px" width="25px" height="25px" viewBox="0 0 25 25" xml:space="preserve">
<g>
	<path fill="#B8C0BA" d="M22.782,11.871c-0.291-4.494-5.908-1.8-7.777-0.772c-0.07,0.033-0.135,0.064-0.195,0.094
		c0.375,0.694,0.312,1.561-0.252,2.27c-0.027,0.034-0.058,0.065-0.086,0.098c-0.631,0.714-1.637,1.048-2.569,0.911
		c-0.334-0.048-0.655-0.155-0.949-0.325c-0.552-0.32-0.897-0.807-1.019-1.341c0-0.002-0.002-0.005-0.002-0.006
		c-0.002-0.007-0.004-0.014-0.005-0.021c-0.001-0.002-0.002-0.005-0.002-0.008c-0.12-0.574,0.019-1.202,0.446-1.739
		c0.285-0.356,0.66-0.626,1.076-0.801c0.016-0.007,0.031-0.015,0.049-0.021c-0.968-1.582-4.229-6.205-7.288-2.365
		c-3.347,4.202,4.435,4.873,5.722,4.954c-1.453,0.186-9.016,1.36-5.911,5.306c2.442,3.105,5.325,0.094,6.78-1.892
		c0.127-0.153,0.246-0.302,0.356-0.443c0.295-0.38,0.522-0.706,0.659-0.908c-0.034,0.191-0.079,0.476-0.114,0.814
		c0,0.003-0.001,0.005-0.001,0.007c-0.006,0.032-0.013,0.062-0.018,0.096c-0.002,0.011-0.004,0.021-0.006,0.032
		c-0.006,0.034-0.013,0.067-0.018,0.102c-0.002,0.008-0.004,0.018-0.005,0.025c-0.028,0.168-0.056,0.345-0.081,0.528
		c0,0.003,0,0.006,0,0.008c-0.005,0.039-0.01,0.08-0.015,0.119c-0.001,0.012-0.003,0.022-0.004,0.034
		c-0.005,0.036-0.009,0.075-0.013,0.113c-0.002,0.014-0.004,0.028-0.004,0.042c-0.005,0.036-0.008,0.072-0.012,0.11
		c-0.002,0.016-0.003,0.03-0.004,0.047c-0.004,0.037-0.006,0.074-0.01,0.11c-0.002,0.016-0.003,0.032-0.004,0.05
		c-0.002,0.036-0.006,0.073-0.008,0.108c-0.001,0.018-0.002,0.035-0.003,0.051c-0.002,0.038-0.005,0.076-0.007,0.113
		c0,0.015-0.002,0.028-0.002,0.043c-0.002,0.039-0.004,0.08-0.005,0.121c-0.001,0.008-0.001,0.017-0.001,0.025
		c-0.006,0.189-0.006,0.381,0.002,0.572c0.002,0.015,0.002,0.029,0.002,0.043c0.002,0.036,0.004,0.073,0.006,0.109
		c0.002,0.02,0.003,0.036,0.004,0.055c0.002,0.035,0.004,0.069,0.008,0.104c0.002,0.02,0.003,0.039,0.005,0.059
		c0.003,0.034,0.007,0.067,0.01,0.101c0.003,0.02,0.005,0.041,0.007,0.062c0.005,0.032,0.01,0.065,0.014,0.098
		c0.003,0.021,0.006,0.041,0.009,0.062c0.005,0.033,0.01,0.064,0.015,0.097c0.005,0.021,0.008,0.04,0.012,0.06
		c0.006,0.033,0.012,0.064,0.019,0.097c0.003,0.019,0.007,0.038,0.012,0.057c0.007,0.032,0.014,0.065,0.021,0.097
		c0.004,0.016,0.009,0.031,0.012,0.046c0.028,0.114,0.062,0.225,0.099,0.332c0.007,0.019,0.014,0.037,0.02,0.055
		c0.01,0.026,0.021,0.053,0.031,0.079c0.008,0.021,0.017,0.041,0.025,0.062c0.01,0.024,0.021,0.05,0.033,0.073
		c0.009,0.021,0.018,0.042,0.027,0.062c0.012,0.023,0.024,0.047,0.035,0.069c0.012,0.021,0.023,0.042,0.033,0.062
		c0.012,0.021,0.025,0.044,0.038,0.065s0.024,0.041,0.037,0.061c0.013,0.021,0.027,0.042,0.04,0.062
		c0.014,0.02,0.027,0.04,0.041,0.059c0.015,0.02,0.029,0.04,0.043,0.059c0.016,0.02,0.031,0.038,0.047,0.057
		c0.016,0.02,0.029,0.036,0.045,0.055c0.018,0.02,0.035,0.037,0.053,0.057c0.016,0.016,0.031,0.032,0.045,0.048
		c0.023,0.023,0.049,0.046,0.074,0.068c0.017,0.016,0.033,0.03,0.052,0.044c0.03,0.025,0.06,0.051,0.092,0.074
		c0.016,0.012,0.032,0.021,0.048,0.033c0.024,0.018,0.049,0.034,0.074,0.051c0.018,0.012,0.037,0.021,0.056,0.032
		c0.024,0.016,0.049,0.03,0.075,0.044c0.02,0.01,0.039,0.021,0.061,0.03c0.025,0.013,0.051,0.025,0.077,0.037
		c0.021,0.009,0.044,0.018,0.063,0.026c0.028,0.012,0.057,0.022,0.084,0.032c0.023,0.008,0.045,0.015,0.068,0.022
		c0.029,0.01,0.059,0.019,0.09,0.027c0.022,0.007,0.046,0.014,0.07,0.02c0.031,0.007,0.064,0.015,0.097,0.021
		c0.023,0.005,0.047,0.009,0.071,0.015c0.036,0.006,0.073,0.011,0.111,0.017c0.021,0.003,0.044,0.007,0.066,0.01
		c0.043,0.004,0.09,0.008,0.135,0.012c0.019,0.001,0.035,0.003,0.053,0.004c0.062,0.004,0.128,0.005,0.193,0.005h0.004
		c0.094,0,0.19-0.005,0.291-0.012c0.025-0.002,0.051-0.005,0.077-0.007c0.1-0.009,0.201-0.021,0.307-0.036
		c0.004-0.001,0.007-0.001,0.011-0.002c0.109-0.017,0.223-0.039,0.34-0.064c0.028-0.005,0.057-0.013,0.087-0.02
		c0.118-0.026,0.239-0.057,0.366-0.092c4.927-1.401,1.243-5.404-0.238-6.797c0.288,0.082,0.625,0.171,0.992,0.253
		c0.01,0.012,0.021,0.023,0.031,0.035C18.796,15.131,23.03,15.698,22.782,11.871z"/>
	<path fill="#B8C0BA" d="M11.688,10.142c0.753-0.244,1.603-0.193,2.29,0.206c0.357,0.208,0.63,0.485,0.809,0.8
		c0.24-0.263,0.608-0.682,0.99-1.183c1.629-1.889,3.839-5.277-0.436-6.075c-5.014-0.936-4.129,4.46-3.702,6.267
		C11.655,10.151,11.671,10.146,11.688,10.142z"/>
</g>
<g>
</g>
<g>
</g>
<g>
</g>
<g>
</g>
<g>
</g>
<g>
</g>
</svg>
